<svg xmlns="http://www.w3.org/2000/svg" version="1.1" xmlns:xlink="http://www.w3.org/1999/xlink" xmlns:svgjs="http://svgjs.com/svgjs" width="588" height="601"><svg width="588" height="601" viewBox="0 0 588 601" fill="none" xmlns="http://www.w3.org/2000/svg">
<circle cx="309.306" cy="329.769" r="270.633" fill="#181515"></circle>
<circle cx="309.306" cy="270.633" r="270.633" fill="#181515"></circle>
<path fill-rule="evenodd" clip-rule="evenodd" d="M579.493 286.286C571.385 428.468 453.518 541.266 309.306 541.266C165.093 541.266 47.2265 428.468 39.1179 286.286C38.8225 291.467 38.6728 296.686 38.6728 301.94C38.6728 451.406 159.839 572.573 309.306 572.573C458.772 572.573 579.938 451.406 579.938 301.94C579.938 296.686 579.789 291.467 579.493 286.286Z" fill="#F4E6D2"></path>
<line x1="229.948" y1="127.27" x2="229.948" y2="213.63" stroke="#F4E6D2" stroke-width="50" stroke-linecap="round"></line>
<line x1="388.663" y1="213.63" x2="388.663" y2="127.27" stroke="#F4E6D2" stroke-width="50" stroke-linecap="round"></line>
<path fill-rule="evenodd" clip-rule="evenodd" d="M501.043 313.679C498.183 268.446 440.511 267.139 399.2 285.784C372.288 297.931 341.571 304.814 308.958 304.814C276.345 304.814 245.628 297.931 218.715 285.784C177.405 267.139 119.732 268.446 116.873 313.679C116.687 316.617 116.593 319.577 116.593 322.554C116.593 412.657 202.717 485.699 308.958 485.699C415.198 485.699 501.323 412.657 501.323 322.554C501.323 319.576 501.229 316.617 501.043 313.679Z" fill="#F4E6D2"></path>
<path d="M537.5 520.293L564.71 557.963" stroke="#F4E6D2" stroke-width="15" stroke-linecap="round"></path>
<path d="M555.665 498.827L580.015 511.35" stroke="#F4E6D2" stroke-width="15" stroke-linecap="round"></path>
<path d="M24.3741 43.7725L77.5552 92.204" stroke="#F4E6D2" stroke-width="15" stroke-linecap="round"></path>
<path d="M23.6767 92.0682L60.1622 110.919" stroke="#F4E6D2" stroke-width="15" stroke-linecap="round"></path>
<path d="M72.3943 38.573L94.5663 73.1411" stroke="#F4E6D2" stroke-width="15" stroke-linecap="round"></path>
</svg><style>@media (prefers-color-scheme: light) { :root { filter: none; } }
</style></svg>